<svg xmlns="http://www.w3.org/2000/svg" xmlns:xlink="http://www.w3.org/1999/xlink" width="42.504" height="75.4" viewBox="0 0 42.504 75.4">
  <defs>
    <clipPath id="clip-path">
      <rect width="42.504" height="75.4" fill="none"/>
    </clipPath>
    <clipPath id="clip-path-3">
      <rect id="Rectangle_3" data-name="Rectangle 3" width="42.506" height="75.4" fill="none"/>
    </clipPath>
    <clipPath id="clip-path-4">
      <rect id="Rectangle_1" data-name="Rectangle 1" width="9.823" height="7.592" fill="none"/>
    </clipPath>
    <clipPath id="clip-path-5">
      <rect id="Rectangle_2" data-name="Rectangle 2" width="42.328" height="36.4" fill="none"/>
    </clipPath>
  </defs>
  <g id="brandLogo" clip-path="url(#clip-path)">
    <g id="Group_11" data-name="Group 11" clip-path="url(#clip-path)">
      <path id="Path_2" data-name="Path 2" d="M.041,0V36.4H9.557V1.708L8.517,0Z" transform="translate(0.135 0.001)"/>
      <path id="Path_3" data-name="Path 3" d="M20.9,16.829V1.4L11.989,16.408,2.837,1.38V17.266L9.545,28.208h4.576Z" transform="translate(9.456 4.601)"/>
      <path id="Path_4" data-name="Path 4" d="M8.568,0,7.606,1.621V21.433L7.689,36.4h9.46L17.049,0Z" transform="translate(25.354 0.001)"/>
      <g id="Group_10" data-name="Group 10" transform="translate(0 0)">
        <g id="Group_9" data-name="Group 9" clip-path="url(#clip-path-3)">
          <g id="Group_5" data-name="Group 5" transform="translate(16.353 46.072)" opacity="0.56">
            <g id="Group_4" data-name="Group 4">
              <g id="Group_3" data-name="Group 3" clip-path="url(#clip-path-4)">
                <path id="Path_5" data-name="Path 5" d="M3.774,10.632l3.038,7.592h3.744L13.6,10.632Z" transform="translate(-3.773 -10.632)"/>
              </g>
            </g>
          </g>
          <g id="Group_8" data-name="Group 8" transform="translate(0 39.001)" opacity="0.56">
            <g id="Group_7" data-name="Group 7">
              <g id="Group_6" data-name="Group 6" clip-path="url(#clip-path-5)">
                <path id="Path_6" data-name="Path 6" d="M31.824,9l-1.642,4.056L25.935,23.664h.013l-4.68,11.648-1.473-3.666,0,0-2.21-5.512-.992-2.474h0L11.51,10.972,10.712,9H0L16.12,45.4H26.26L42.328,9Z" transform="translate(0.001 -9)"/>
              </g>
            </g>
          </g>
        </g>
      </g>
      <path id="Path_7" data-name="Path 7" d="M2,0l1.04,1.707V0Z" transform="translate(6.654 0.001)"/>
      <path id="Path_8" data-name="Path 8" d="M7.606,0V1.621L8.568,0Z" transform="translate(25.353 0.001)"/>
    </g>
  </g>
</svg>
