<svg xmlns="http://www.w3.org/2000/svg" xmlns:xlink="http://www.w3.org/1999/xlink" width="32.463" height="31.669" viewBox="0 0 32.463 31.669">
  <defs>
    <clipPath id="clip-path">
      <rect width="32.463" height="31.669" fill="none"/>
    </clipPath>
  </defs>
  <g id="_25231" data-name="25231" clip-path="url(#clip-path)">
    <path id="Path_1" data-name="Path 1" d="M30.285,13.449a16.161,16.161,0,0,0-5.907-5.907,15.876,15.876,0,0,0-8.147-2.177A15.878,15.878,0,0,0,8.084,7.542a16.159,16.159,0,0,0-5.907,5.907A15.877,15.877,0,0,0,0,21.6a15.774,15.774,0,0,0,3.1,9.542A15.9,15.9,0,0,0,11.1,37a.946.946,0,0,0,.845-.148.827.827,0,0,0,.275-.634q0-.063-.011-1.141T12.194,33.2l-.486.084a6.2,6.2,0,0,1-1.173.074,8.937,8.937,0,0,1-1.469-.148,3.282,3.282,0,0,1-1.416-.634,2.682,2.682,0,0,1-.93-1.3l-.211-.486a5.281,5.281,0,0,0-.666-1.078,2.55,2.55,0,0,0-.919-.8L4.776,28.8a1.552,1.552,0,0,1-.275-.254,1.159,1.159,0,0,1-.19-.3q-.064-.148.106-.243a1.371,1.371,0,0,1,.613-.094l.423.063a3.085,3.085,0,0,1,1.046.507,3.411,3.411,0,0,1,1.025,1.1A3.725,3.725,0,0,0,8.7,30.906a2.488,2.488,0,0,0,1.384.454,6.01,6.01,0,0,0,1.2-.105,4.2,4.2,0,0,0,.951-.317,3.424,3.424,0,0,1,1.035-2.177,14.471,14.471,0,0,1-2.166-.38,8.625,8.625,0,0,1-1.986-.825,5.69,5.69,0,0,1-1.7-1.416A6.8,6.8,0,0,1,6.308,23.92a10.553,10.553,0,0,1-.433-3.17A6.164,6.164,0,0,1,7.545,16.4a5.682,5.682,0,0,1,.148-4.311,2.962,2.962,0,0,1,1.818.285,12.707,12.707,0,0,1,1.765.814q.56.338.9.571a15.263,15.263,0,0,1,8.116,0l.8-.507a11.374,11.374,0,0,1,1.944-.93,2.77,2.77,0,0,1,1.712-.232,5.627,5.627,0,0,1,.169,4.311,6.165,6.165,0,0,1,1.67,4.354,10.671,10.671,0,0,1-.433,3.181,6.54,6.54,0,0,1-1.12,2.219,5.908,5.908,0,0,1-1.712,1.405,8.642,8.642,0,0,1-1.987.824,14.456,14.456,0,0,1-2.166.381,3.764,3.764,0,0,1,1.1,3V36.22a.842.842,0,0,0,.264.634.918.918,0,0,0,.835.148,15.9,15.9,0,0,0,8-5.865,15.777,15.777,0,0,0,3.1-9.542A15.89,15.89,0,0,0,30.285,13.449Z" transform="translate(0 -5.365)"/>
  </g>
</svg>
