<svg xmlns="http://www.w3.org/2000/svg" xmlns:xlink="http://www.w3.org/1999/xlink" width="33.395" height="27.507" viewBox="0 0 33.395 27.507">
  <defs>
    <clipPath id="clip-path">
      <rect width="33.395" height="27.507" fill="none"/>
    </clipPath>
  </defs>
  <g id="twitter" transform="translate(0 0)" clip-path="url(#clip-path)">
    <path id="Path_11" data-name="Path 11" d="M33.27,57.508a13.831,13.831,0,0,1-3.373.964C30.44,58.38,31.241,57.4,31.561,57a6.189,6.189,0,0,0,1.124-2.046c.029-.057.051-.131-.007-.175a.193.193,0,0,0-.179.015,17.213,17.213,0,0,1-4.006,1.533.267.267,0,0,1-.277-.073,3.219,3.219,0,0,0-.35-.358,7.112,7.112,0,0,0-1.942-1.19,6.746,6.746,0,0,0-2.976-.479,7.118,7.118,0,0,0-2.824.8,7.279,7.279,0,0,0-2.28,1.861,7.008,7.008,0,0,0-1.36,2.726,7.352,7.352,0,0,0-.072,2.877c.021.161.007.182-.138.161-5.5-.82-10.066-2.789-13.77-7.009-.161-.183-.248-.183-.38.015C.5,58.082,1.291,61.985,3.315,63.9c.269.255.547.511.846.745A7.035,7.035,0,0,1,1.5,63.9c-.161-.1-.242-.043-.255.139a4.264,4.264,0,0,0,.042.788,7.063,7.063,0,0,0,4.352,5.629,4.147,4.147,0,0,0,.884.27,7.876,7.876,0,0,1-2.607.081c-.19-.037-.262.058-.19.24,1.147,3.126,3.622,4.056,5.476,4.585.248.044.5.044.745.1-.015.022-.03.022-.044.044-.615.937-2.746,1.635-3.74,1.982a13.369,13.369,0,0,1-5.678.726c-.306-.044-.369-.041-.452,0s-.011.125.087.205c.387.255.782.482,1.183.7a18.772,18.772,0,0,0,3.8,1.518c6.822,1.884,14.507.5,19.629-4.59,4.022-4,5.433-9.507,5.433-15.027,0-.216.254-.335.407-.448a13.274,13.274,0,0,0,2.659-2.778.812.812,0,0,0,.164-.533v-.029c0-.088.011-.062-.125,0" transform="translate(0 -54.211)"/>
  </g>
</svg>
